REM DIRINDEX 1\2,1\3
REM DIRNAME cjc039,folder01,folder02
TITLE ""
FILE "1341-1360.mp3" MP3
  TRACK 01 AUDIO
    TITLE "0:"
    INDEX 01 00:00:00
  TRACK 02 AUDIO
    TITLE "2:cjc039_1681"
    INDEX 01 00:00:21
  TRACK 03 AUDIO
    TITLE "0:"
    INDEX 01 00:01:21
  TRACK 04 AUDIO
    TITLE "3:cjc039_1682"
    INDEX 01 00:02:02
  TRACK 05 AUDIO
    TITLE "0:"
    INDEX 01 00:04:62
  TRACK 06 AUDIO
    TITLE "2:cjc039_1683"
    INDEX 01 00:06:43
  TRACK 07 AUDIO
    TITLE "0:"
    INDEX 01 00:07:58
  TRACK 08 AUDIO
    TITLE "3:cjc039_1684"
    INDEX 01 00:08:32
  TRACK 09 AUDIO
    TITLE "0:"
    INDEX 01 00:12:16
  TRACK 10 AUDIO
    TITLE "2:cjc039_1685"
    INDEX 01 00:13:71
  TRACK 11 AUDIO
    TITLE "0:"
    INDEX 01 00:15:13
  TRACK 12 AUDIO
    TITLE "3:cjc039_1686"
    INDEX 01 00:15:64
  TRACK 13 AUDIO
    TITLE "0:"
    INDEX 01 00:19:20
  TRACK 14 AUDIO
    TITLE "2:cjc039_1687"
    INDEX 01 00:20:71
  TRACK 15 AUDIO
    TITLE "0:"
    INDEX 01 00:22:11
  TRACK 16 AUDIO
    TITLE "3:cjc039_1688"
    INDEX 01 00:22:60
  TRACK 17 AUDIO
    TITLE "0:"
    INDEX 01 00:26:17
  TRACK 18 AUDIO
    TITLE "2:cjc039_1689"
    INDEX 01 00:27:73
  TRACK 19 AUDIO
    TITLE "0:"
    INDEX 01 00:29:11
  TRACK 20 AUDIO
    TITLE "3:cjc039_1690"
    INDEX 01 00:29:64
  TRACK 21 AUDIO
    TITLE "0:"
    INDEX 01 00:33:26
  TRACK 22 AUDIO
    TITLE "2:cjc039_1691"
    INDEX 01 00:35:04
  TRACK 23 AUDIO
    TITLE "0:"
    INDEX 01 00:36:25
  TRACK 24 AUDIO
    TITLE "3:cjc039_1692"
    INDEX 01 00:37:03
  TRACK 25 AUDIO
    TITLE "0:"
    INDEX 01 00:40:13
  TRACK 26 AUDIO
    TITLE "2:cjc039_1693"
    INDEX 01 00:41:65
  TRACK 27 AUDIO
    TITLE "0:"
    INDEX 01 00:42:59
  TRACK 28 AUDIO
    TITLE "3:cjc039_1694"
    INDEX 01 00:43:40
  TRACK 29 AUDIO
    TITLE "0:"
    INDEX 01 00:46:31
  TRACK 30 AUDIO
    TITLE "2:cjc039_1695"
    INDEX 01 00:48:06
  TRACK 31 AUDIO
    TITLE "0:"
    INDEX 01 00:49:25
  TRACK 32 AUDIO
    TITLE "3:cjc039_1696"
    INDEX 01 00:50:05
  TRACK 33 AUDIO
    TITLE "0:"
    INDEX 01 00:53:27
  TRACK 34 AUDIO
    TITLE "2:cjc039_1697"
    INDEX 01 00:55:03
  TRACK 35 AUDIO
    TITLE "0:"
    INDEX 01 00:56:08
  TRACK 36 AUDIO
    TITLE "3:cjc039_1698"
    INDEX 01 00:56:55
  TRACK 37 AUDIO
    TITLE "0:"
    INDEX 01 01:00:68
  TRACK 38 AUDIO
    TITLE "2:cjc039_1699"
    INDEX 01 01:02:42
  TRACK 39 AUDIO
    TITLE "0:"
    INDEX 01 01:03:71
  TRACK 40 AUDIO
    TITLE "3:cjc039_1700"
    INDEX 01 01:04:48
  TRACK 41 AUDIO
    TITLE "0:"
    INDEX 01 01:07:74
  TRACK 42 AUDIO
    TITLE "2:cjc039_1701"
    INDEX 01 01:09:54
  TRACK 43 AUDIO
    TITLE "0:"
    INDEX 01 01:10:63
  TRACK 44 AUDIO
    TITLE "3:cjc039_1702"
    INDEX 01 01:11:45
  TRACK 45 AUDIO
    TITLE "0:"
    INDEX 01 01:15:09
  TRACK 46 AUDIO
    TITLE "2:cjc039_1703"
    INDEX 01 01:16:60
  TRACK 47 AUDIO
    TITLE "0:"
    INDEX 01 01:18:06
  TRACK 48 AUDIO
    TITLE "3:cjc039_1704"
    INDEX 01 01:18:58
  TRACK 49 AUDIO
    TITLE "0:"
    INDEX 01 01:23:05
  TRACK 50 AUDIO
    TITLE "2:cjc039_1705"
    INDEX 01 01:24:57
  TRACK 51 AUDIO
    TITLE "0:"
    INDEX 01 01:25:62
  TRACK 52 AUDIO
    TITLE "3:cjc039_1706"
    INDEX 01 01:26:34
  TRACK 53 AUDIO
    TITLE "0:"
    INDEX 01 01:29:15
  TRACK 54 AUDIO
    TITLE "2:cjc039_1707"
    INDEX 01 01:30:67
  TRACK 55 AUDIO
    TITLE "0:"
    INDEX 01 01:32:29
  TRACK 56 AUDIO
    TITLE "3:cjc039_1708"
    INDEX 01 01:33:05
  TRACK 57 AUDIO
    TITLE "0:"
    INDEX 01 01:36:31
  TRACK 58 AUDIO
    TITLE "2:cjc039_1709"
    INDEX 01 01:38:08
  TRACK 59 AUDIO
    TITLE "0:"
    INDEX 01 01:39:23
  TRACK 60 AUDIO
    TITLE "3:cjc039_1710"
    INDEX 01 01:40:03
  TRACK 61 AUDIO
    TITLE "0:"
    INDEX 01 01:43:47
  TRACK 62 AUDIO
    TITLE "2:cjc039_1711"
    INDEX 01 01:45:22
  TRACK 63 AUDIO
    TITLE "0:"
    INDEX 01 01:46:29
  TRACK 64 AUDIO
    TITLE "3:cjc039_1712"
    INDEX 01 01:47:09
  TRACK 65 AUDIO
    TITLE "0:"
    INDEX 01 01:50:45
  TRACK 66 AUDIO
    TITLE "2:cjc039_1713"
    INDEX 01 01:52:22
  TRACK 67 AUDIO
    TITLE "0:"
    INDEX 01 01:53:23
  TRACK 68 AUDIO
    TITLE "3:cjc039_1714"
    INDEX 01 01:54:01
  TRACK 69 AUDIO
    TITLE "0:"
    INDEX 01 01:56:69
  TRACK 70 AUDIO
    TITLE "2:cjc039_1715"
    INDEX 01 01:58:44
  TRACK 71 AUDIO
    TITLE "0:"
    INDEX 01 01:59:59
  TRACK 72 AUDIO
    TITLE "3:cjc039_1716"
    INDEX 01 02:00:41
  TRACK 73 AUDIO
    TITLE "0:"
    INDEX 01 02:04:64
  TRACK 74 AUDIO
    TITLE "2:cjc039_1717"
    INDEX 01 02:06:44
  TRACK 75 AUDIO
    TITLE "0:"
    INDEX 01 02:07:59
  TRACK 76 AUDIO
    TITLE "3:cjc039_1718"
    INDEX 01 02:08:37
  TRACK 77 AUDIO
    TITLE "0:"
    INDEX 01 02:12:31
  TRACK 78 AUDIO
    TITLE "2:cjc039_1719"
    INDEX 01 02:14:10
  TRACK 79 AUDIO
    TITLE "0:"
    INDEX 01 02:15:27
  TRACK 80 AUDIO
    TITLE "3:cjc039_1720"
    INDEX 01 02:16:03
  TRACK 81 AUDIO
    TITLE "0:"
    INDEX 01 02:19:72
